<?xml version="1.0" encoding="UTF-8"?>
<svg xmlns="http://www.w3.org/2000/svg" viewBox="0 0 665.21 667">
  <style>
    /* Tab light (default): logo oscuro.
       Tab oscuro (dark mode del navegador o tema oscuro del SO): logo crema. */
    path { fill: #0E0E0E; }
    @media (prefers-color-scheme: dark) {
      path { fill: #F7F3EA; }
    }
  </style>
  <path d="M489.84,51.99l-119.52,119.52c-6.13,6.13-16.6,1.79-16.6-6.88V9.73c0-5.75,4.96-10.22,10.68-9.68,44.08,4.16,85.68,16.88,123.1,36.47,5.8,3.03,6.95,10.85,2.33,15.48Z"/>
  <path d="M596.21,140.99l-225.88,225.88c-6.13,6.13-16.6,1.79-16.6-6.88v-73.82c0-29.16,11.58-57.12,32.2-77.74l138.88-138.88c3.46-3.46,8.96-3.83,12.82-.83,22.21,17.25,42.18,37.22,59.41,59.43,3,3.86,2.63,9.36-.83,12.82Z"/>
  <path d="M515.52,426.26c-23.56,23.56-41.97,51.11-54.73,81.9-12.76,30.78-19.22,63.29-19.22,96.62v44.73c-27.81,9.58-57.28,15.59-87.85,17.5v-176.18c0-35.1,13.94-68.76,38.76-93.57l230.45-230.45c19.57,34.09,33.3,71.94,39.85,112.2l-147.26,147.26Z"/>
  <path d="M662.82,386.94c-16.89,104.38-82.07,192.58-171.87,240.92-5.52,2.97-12.22-1.06-12.22-7.33v-12.32c0-59.31,23.56-116.18,65.5-158.12l96.76-96.76c9.31-9.31,25.15-2.02,24.18,11.11-.63,8.51-1.41,16.74-2.35,22.5Z"/>
  <path d="M175.37,51.99l119.52,119.52c6.13,6.13,16.6,1.79,16.6-6.88V9.73c0-5.75-4.96-10.22-10.68-9.68-44.08,4.16-85.68,16.88-123.1,36.47-5.8,3.03-6.95,10.85-2.33,15.48Z"/>
  <path d="M69,140.99l225.88,225.88c6.13,6.13,16.6,1.79,16.6-6.88v-73.82c0-29.16-11.58-57.12-32.2-77.74L140.41,69.57c-3.46-3.46-8.96-3.83-12.82-.83-22.21,17.25-42.18,37.22-59.41,59.43-3,3.86-2.63,9.36.83,12.82Z"/>
  <path d="M149.69,426.26c23.56,23.56,41.97,51.11,54.73,81.9,12.76,30.78,19.22,63.29,19.22,96.62v44.73c27.81,9.58,57.28,15.59,87.85,17.5v-180.56c0-32.29-12.83-63.26-35.66-86.09L42.28,166.8C22.71,200.89,8.98,238.74,2.43,279l147.26,147.26Z"/>
  <path d="M2.39,386.94c16.89,104.38,82.07,192.58,171.87,240.92,5.52,2.97,12.22-1.06,12.22-7.33v-12.32c0-59.31-23.56-116.18-65.5-158.12l-96.76-96.76c-9.31-9.31-25.15-2.02-24.18,11.11.63,8.51,1.41,16.74,2.35,22.5Z"/>
</svg>
