<?xml version="1.0" encoding="UTF-8"?>
<svg xmlns="http://www.w3.org/2000/svg" style="display:none" aria-hidden="true">
  <!--
    ROOTS LIFE logo symbol library.
    Todos los paths usan fill="currentColor" — el color se controla por CSS.
    Uso: <svg><use href="./logos/logos.svg#roots-full"/></svg>
  -->

  <!-- Full logo (stacked + leaf emblem). Uso: hero, piezas grandes. -->
  <symbol id="roots-full" viewBox="0 0 893.36 791.99" fill="currentColor">
    <g>
      <path d="M34.36,603.61v27.88c0,11.17-9.06,20.23-20.23,20.23H0v-203.04h65.6c15.62,0,27.96,4.64,37.01,13.9,9.06,9.27,13.59,20.77,13.59,34.52,0,12.29-5,23.54-15,33.74,15,3.34,27.07,11.67,36.23,24.99,9.16,13.33,13.74,29.16,13.74,47.48v23.94c0,13.52-10.96,24.47-24.47,24.47h-9.89v-45.29c0-14.99-3.8-26.75-11.4-35.3-7.6-8.54-17.65-12.81-30.14-12.81-11.66,0-21.4,4.06-29.21,12.18-7.81,8.12-11.71,19.16-11.71,33.11ZM59.66,482.11h-25.3v58.73c1.45-1.46,3.12-2.92,5-4.37,1.87-1.45,3.9-2.81,6.09-4.06,2.19-1.25,4.06-2.34,5.62-3.28,1.56-.94,3.7-2.08,6.4-3.44,2.7-1.35,4.68-2.34,5.94-2.97,12.49-6.66,18.74-14.16,18.74-22.49,0-5.62-1.98-10.04-5.94-13.27-3.96-3.23-9.48-4.84-16.56-4.84Z"/>
      <path d="M277.69,656.09c-28.95,0-53.57-10.31-73.87-30.92-20.31-20.62-30.46-45.71-30.46-75.28s10.15-54.09,30.46-74.81c20.3-20.72,44.93-31.08,73.87-31.08s53.67,10.36,74.19,31.08c20.51,20.73,30.77,45.66,30.77,74.81s-10.2,54.66-30.61,75.28c-20.41,20.62-45.19,30.92-74.34,30.92ZM277.69,620.8c19.37,0,35.76-6.87,49.2-20.62,13.43-13.74,20.15-30.5,20.15-50.29s-6.72-36.18-20.15-49.82c-13.43-13.64-29.83-20.46-49.2-20.46s-35.41,6.82-48.73,20.46c-13.33,13.64-19.99,30.25-19.99,49.82s6.66,36.55,19.99,50.29c13.33,13.74,29.57,20.62,48.73,20.62Z"/>
      <path d="M514.46,656.09c-28.95,0-53.57-10.31-73.88-30.92-20.31-20.62-30.46-45.71-30.46-75.28s10.15-54.09,30.46-74.81c20.3-20.72,44.93-31.08,73.88-31.08s53.67,10.36,74.18,31.08c20.51,20.73,30.77,45.66,30.77,74.81s-10.2,54.66-30.61,75.28c-20.42,20.62-45.2,30.92-74.34,30.92ZM514.46,620.8c19.37,0,35.77-6.87,49.2-20.62,13.43-13.74,20.14-30.5,20.14-50.29s-6.71-36.18-20.14-49.82c-13.43-13.64-29.83-20.46-49.2-20.46s-35.41,6.82-48.73,20.46c-13.33,13.64-19.99,30.25-19.99,49.82s6.66,36.55,19.99,50.29c13.33,13.74,29.57,20.62,48.73,20.62Z"/>
      <path d="M703.75,483.04v168.68h-34.36v-168.68h-42.8v-34.36h120.26v34.36h-43.11Z"/>
      <path d="M766.54,594.87v-11.56h34.36v11.56c0,8.12,2.91,14.68,8.74,19.68,5.83,5,12.81,7.5,20.93,7.5,7.5,0,14.01-2.23,19.52-6.72,5.52-4.47,8.28-10.04,8.28-16.71,0-5.2-1.46-9.78-4.38-13.74-2.92-3.96-5.88-6.87-8.9-8.75s-8.8-5-17.34-9.37c-.42-.21-.73-.36-.94-.47-.21-.1-.52-.26-.94-.47-.42-.21-.78-.41-1.09-.63-.32-.2-.68-.41-1.09-.63l-12.18-6.25c-30.2-15.2-45.29-34.88-45.29-59.04,0-16.24,5.93-29.52,17.8-39.83,11.87-10.31,26.34-15.46,43.42-15.46s32.43,5.62,44.2,16.87c11.76,11.25,17.65,25.93,17.65,44.04v12.5h-34.36v-11.87c0-8.33-2.71-14.99-8.12-19.99-5.41-5-12.18-7.5-20.3-7.5-7.3,0-13.39,2.19-18.28,6.56-4.89,4.37-7.34,9.79-7.34,16.24s2.39,11.4,7.18,15.46c4.79,4.06,12.18,8.38,22.18,12.96l13.74,6.87c15.62,7.29,27.75,16.45,36.39,27.49,8.64,11.04,12.96,23.11,12.96,36.23,0,16.87-6.2,30.46-18.59,40.76-12.39,10.31-27.12,15.46-44.2,15.46s-32.28-5.51-44.98-16.55c-12.7-11.03-19.05-25.93-19.05-44.67Z"/>
      <g>
        <path d="M617.85,159.26c1.42-.95,3.37-.23,3.66,1.46,1.69,9.83,4.26,29.98,2.72,41.51-1.01,7.54-7.98,15.29-14.85,19.75-22.87,14.87-49.74,25.68-73.01,39.96-36.67,22.5-58.15,55.89-65.42,99.33-3.12,18.65-6.64,21.69-31.19,21.38-1.3-.02-2.45-1.07-2.45-2.37.03-23.89.44-48.39,1.06-72.27.11-4.29,3.49-9.24,6.72-12.57,19.4-19.99,37.31-42.07,59.28-58.77,35.56-27.02,72.55-49.9,113.48-77.41Z"/>
        <path d="M598.04,97.35c4.17,6.74,7.74,13.85,9.73,18.9,10.05,25.45,6.41,22.57-23.73,44.85-30.88,22.83-63.32,43.58-93.85,66.83-17.07,13-32.14,28.64-49.11,44.46-1.5,1.39-3.96.34-3.99-1.7-.19-13.43-.92-26.42.59-39.15.74-6.19,6.36-13,11.62-17.25,47.7-38.57,99.65-77.87,148.74-116.95Z"/>
        <path d="M557.21,50.74c.91-.82,2.23-.89,3.12-.07,4.67,4.3,11.23,10.71,15.4,15.8,4.1,5.01,8.91,11.12,9.86,17.34.13.85-.27,1.71-.94,2.24-47.51,38.03-95.64,75.56-143.55,113.87-1.54,1.23-3.81.1-3.82-1.87-.08-22.29,0-41.24,19.79-57.37,33.49-27.28,65.81-58.94,100.12-89.96Z"/>
        <path d="M484.19,368.33c6.52-77.38,73.05-97.94,126.97-128.72,1.77-1.01,3.96.51,3.51,2.49-12.3,54.46-74.71,118.01-127.59,128.93-1.56.32-3.04-1.11-2.9-2.7Z"/>
        <path d="M511.52,18.1c5.17,2.19,10.03,5.25,15.97,8.45,5.73,3.09,11.65,7.29,16.27,13.09.78.98.62,2.5-.31,3.34-34.31,31.12-67.04,60.47-101.76,91.94-1.52,1.37-3.95.27-3.95-1.77-.04-23-2.12-38.18,15.45-53.26,19.15-16.43,38.59-40.19,58.33-61.79Z"/>
        <path d="M437.31,72.14V2.39c0-1.35,1.18-2.44,2.52-2.39,8.26.31,15.79,1.12,23.31,2.63,8.78,1.75,21.62,4.5,28.53,8.97,1.17.76,1.31,2.36.4,3.42-15.93,18.36-40.94,47.4-50.68,58.72-1.42,1.65-4.08.58-4.08-1.6Z"/>
        <path d="M235.04,159.26c-1.42-.95-3.37-.23-3.66,1.46-1.69,9.83-4.26,29.98-2.72,41.51,1.01,7.54,7.98,15.29,14.85,19.75,22.87,14.87,49.74,25.68,73.01,39.96,36.67,22.5,58.15,55.89,65.42,99.33,3.12,18.65,6.64,21.69,31.19,21.38,1.3-.02,2.45-1.07,2.45-2.37-.03-23.89-.44-48.39-1.06-72.27-.11-4.29-3.49-9.24-6.72-12.57-19.4-19.99-37.31-42.07-59.28-58.77-35.56-27.02-72.55-49.9-113.48-77.41Z"/>
        <path d="M254.85,97.35c-4.17,6.74-7.74,13.85-9.73,18.9-10.05,25.45-6.41,22.57,23.73,44.85,30.88,22.83,63.32,43.58,93.85,66.83,17.07,13,32.14,28.64,49.11,44.46,1.5,1.39,3.96.34,3.99-1.7.19-13.43.92-26.42-.59-39.15-.74-6.19-6.36-13-11.62-17.25-47.7-38.57-99.65-77.87-148.74-116.95Z"/>
        <path d="M295.68,50.74c-.91-.82-2.23-.89-3.12-.07-4.67,4.3-11.23,10.71-15.4,15.8s-8.91,11.12-9.86,17.34c-.13.85.27,1.71.94,2.24,47.51,38.03,95.64,75.56,143.55,113.87,1.54,1.23,3.81.1,3.82-1.87.08-22.29,0-41.24-19.79-57.37-33.49-27.28-65.81-58.94-100.12-89.96Z"/>
        <path d="M368.7,368.33c-6.52-77.38-73.05-97.94-126.97-128.72-1.77-1.01-3.96.51-3.51,2.49,12.3,54.46,74.71,118.01,127.59,128.93,1.56.32,3.04-1.11,2.9-2.7Z"/>
        <path d="M341.37,18.1c-5.17,2.19-10.03,5.25-15.97,8.45-5.73,3.09-11.65,7.29-16.27,13.09-.78.98-.62,2.5.31,3.34,34.31,31.12,67.04,60.47,101.76,91.94,1.52,1.37,3.95.27,3.95-1.77.04-23,2.12-38.18-15.45-53.26-19.15-16.43-38.59-40.19-58.33-61.79Z"/>
        <path d="M415.58,72.14V2.39c0-1.35-1.18-2.44-2.52-2.39-8.26.31-15.79,1.12-23.31,2.63-8.78,1.75-21.62,4.5-28.53,8.97-1.17.76-1.31,2.36-.4,3.42,15.93,18.36,40.94,47.4,50.68,58.72,1.42,1.65,4.08.58,4.08-1.6Z"/>
      </g>
      <g>
        <path d="M230.85,785.42v6.56h-43.02v-79.9h4.58c4.94,0,8.94,4,8.94,8.94v57.43h22.54c3.84,0,6.96,3.12,6.96,6.96Z"/>
        <path d="M349.41,717.98v74.01h-7.43c-3.37,0-6.1-2.73-6.1-6.1v-73.8h7.63c3.25,0,5.89,2.64,5.89,5.89Z"/>
        <path d="M485.58,758.8v33.19h-13.52v-79.9h44.74v5.9c0,4.21-3.41,7.62-7.62,7.62h-23.6v19.67h21.76v8.24c0,2.92-2.37,5.28-5.28,5.28h-16.47Z"/>
        <path d="M676.88,782.86v9.13h-44.74v-79.9h44.74v13.52h-28.4c-1.56,0-2.82,1.26-2.82,2.82v16.85h21.75v13.52h-21.75v15.13c0,2.5,2.03,4.53,4.53,4.53h22.29c2.43,0,4.39,1.97,4.39,4.39Z"/>
      </g>
    </g>
  </symbol>

  <!-- Horizontal small: lockup de una línea (ROOTS LIFE en fila). Uso: header, barras angostas. -->
  <symbol id="roots-horizontal" viewBox="0 0 2288.96 279.2" fill="currentColor">
    <g>
      <path d="M1846.94,252.18v21.4h-140.35V12.94h14.94c16.11,0,29.17,13.06,29.17,29.17v187.36h73.53c12.54,0,22.71,10.17,22.71,22.71Z"/>
      <path d="M1924.02,32.16v241.42h-24.23c-10.98,0-19.88-8.9-19.88-19.88V12.94h24.89c10.61,0,19.22,8.6,19.22,19.22Z"/>
      <path d="M2019.37,165.31v108.27h-44.11V12.94h145.96v19.24c0,13.74-11.14,24.87-24.87,24.87h-76.98v64.16h70.98v26.87c0,9.52-7.72,17.23-17.23,17.23h-53.74Z"/>
      <path d="M2288.96,243.8v29.78h-145.96V12.94h145.96v44.11h-92.65c-5.08,0-9.19,4.12-9.19,9.19v54.96h70.97v44.11h-70.97v49.37c0,8.17,6.62,14.79,14.79,14.79h72.73c7.91,0,14.32,6.41,14.32,14.32Z"/>
    </g>
    <path d="M463.25,211.83v35.79c0,14.34-11.62,25.96-25.96,25.96h-18.14V12.94h84.21c20.05,0,35.89,5.95,47.52,17.84,11.63,11.9,17.45,26.67,17.45,44.31,0,15.78-6.42,30.21-19.25,43.31,19.25,4.28,34.75,14.97,46.51,32.08,11.76,17.11,17.64,37.43,17.64,60.95v30.74c0,17.35-14.07,31.42-31.42,31.42h-12.69v-58.14c0-19.25-4.88-34.35-14.64-45.31-9.76-10.96-22.65-16.44-38.7-16.44-14.97,0-27.47,5.21-37.49,15.64-10.02,10.43-15.04,24.6-15.04,42.5ZM495.73,55.85h-32.48v75.39c1.87-1.87,4.01-3.74,6.42-5.62,2.41-1.87,5.01-3.61,7.82-5.21,2.81-1.61,5.21-3.01,7.22-4.21,2.01-1.2,4.74-2.67,8.22-4.41,3.47-1.74,6.01-3.01,7.62-3.81,16.04-8.55,24.06-18.18,24.06-28.87,0-7.22-2.55-12.89-7.62-17.04-5.08-4.14-12.17-6.22-21.25-6.22Z"/>
    <path d="M763.3,279.2c-37.16,0-68.77-13.23-94.83-39.7-26.07-26.46-39.1-58.68-39.1-96.64s13.03-69.43,39.1-96.04c26.06-26.6,57.67-39.9,94.83-39.9s68.9,13.3,95.23,39.9c26.32,26.61,39.49,58.61,39.49,96.04s-13.1,70.17-39.3,96.64c-26.2,26.46-58.01,39.7-95.43,39.7ZM763.3,233.89c24.86,0,45.91-8.82,63.15-26.46,17.24-17.64,25.86-39.16,25.86-64.56s-8.62-46.45-25.86-63.96c-17.24-17.51-38.29-26.27-63.15-26.27s-45.45,8.76-62.56,26.27c-17.11,17.51-25.66,38.83-25.66,63.96s8.55,46.92,25.66,64.56c17.11,17.64,37.96,26.46,62.56,26.46Z"/>
    <path d="M1054.93,279.2c-37.16,0-68.77-13.23-94.84-39.7-26.07-26.46-39.1-58.68-39.1-96.64s13.03-69.43,39.1-96.04c26.06-26.6,57.67-39.9,94.84-39.9s68.9,13.3,95.23,39.9c26.33,26.61,39.5,58.61,39.5,96.04s-13.09,70.17-39.29,96.64c-26.21,26.46-58.02,39.7-95.44,39.7ZM1054.93,233.89c24.86,0,45.91-8.82,63.16-26.46,17.24-17.64,25.86-39.16,25.86-64.56s-8.61-46.45-25.86-63.96c-17.24-17.51-38.3-26.27-63.16-26.27s-45.45,8.76-62.56,26.27c-17.11,17.51-25.66,38.83-25.66,63.96s8.55,46.92,25.66,64.56c17.11,17.64,37.96,26.46,62.56,26.46Z"/>
    <path d="M1296.65,57.05v216.53h-44.11V57.05h-54.94V12.94h154.38v44.11h-55.34Z"/>
    <path d="M1393.03,200.6v-14.84h44.11v14.84c0,10.43,3.74,18.85,11.23,25.26,7.48,6.42,16.44,9.62,26.86,9.62,9.63,0,17.98-2.87,25.06-8.62,7.08-5.74,10.63-12.89,10.63-21.45,0-6.68-1.87-12.56-5.62-17.64-3.75-5.08-7.55-8.82-11.43-11.23-3.88-2.41-11.29-6.42-22.26-12.03-.54-.26-.94-.46-1.2-.6-.27-.13-.67-.33-1.2-.6-.54-.26-1.01-.53-1.4-.8-.4-.26-.87-.53-1.4-.8l-15.64-8.02c-38.77-19.51-58.14-44.77-58.14-75.79,0-20.85,7.62-37.9,22.86-51.13,15.24-13.23,33.81-19.85,55.74-19.85s41.63,7.22,56.74,21.65c15.1,14.44,22.65,33.28,22.65,56.54v16.04h-44.11v-15.24c0-10.69-3.48-19.25-10.43-25.66-6.95-6.42-15.64-9.62-26.06-9.62-9.37,0-17.18,2.81-23.46,8.42-6.28,5.62-9.42,12.57-9.42,20.85s3.07,14.64,9.22,19.85c6.15,5.21,15.64,10.76,28.47,16.64l17.64,8.82c20.05,9.36,35.62,21.12,46.72,35.29,11.09,14.17,16.64,29.67,16.64,46.51,0,21.65-7.96,39.1-23.86,52.33-15.9,13.23-34.82,19.85-56.74,19.85s-41.44-7.08-57.74-21.25c-16.31-14.17-24.46-33.28-24.46-57.34Z"/>
    <g>
      <path d="M205.04,21.76l-50.03,50.03c-2.56,2.56-6.95.75-6.95-2.88V4.07c0-2.41,2.08-4.28,4.47-4.05,18.45,1.74,35.86,7.06,51.53,15.26,2.43,1.27,2.91,4.54.97,6.48Z"/>
      <path d="M249.56,59.02l-94.55,94.55c-2.56,2.56-6.95.75-6.95-2.88v-30.9c0-12.2,4.85-23.91,13.48-32.54l58.13-58.13c1.45-1.45,3.75-1.6,5.37-.35,9.3,7.22,17.65,15.58,24.87,24.88,1.25,1.62,1.1,3.92-.35,5.37Z"/>
      <path d="M215.79,178.42c-9.86,9.86-17.57,21.4-22.91,34.28-5.34,12.89-8.04,26.49-8.04,40.44v18.72c-11.64,4.01-23.97,6.53-36.77,7.33v-73.74c0-14.69,5.84-28.78,16.22-39.17l96.46-96.46c8.19,14.27,13.94,30.11,16.68,46.96l-61.64,61.64Z"/>
      <path d="M277.45,161.97c-7.07,43.69-34.35,80.61-71.94,100.85-2.31,1.24-5.11-.44-5.11-3.07v-5.16c0-24.82,9.86-48.63,27.42-66.19l40.5-40.5c3.9-3.9,10.53-.85,10.12,4.65-.26,3.56-.59,7.01-.98,9.42Z"/>
      <path d="M73.41,21.76l50.03,50.03c2.56,2.56,6.95.75,6.95-2.88V4.07c0-2.41-2.08-4.28-4.47-4.05-18.45,1.74-35.86,7.06-51.53,15.26-2.43,1.27-2.91,4.54-.97,6.48Z"/>
      <path d="M28.88,59.02l94.55,94.55c2.56,2.56,6.95.75,6.95-2.88v-30.9c0-12.2-4.85-23.91-13.48-32.54L58.77,29.12c-1.45-1.45-3.75-1.6-5.37-.35-9.3,7.22-17.65,15.58-24.87,24.88-1.25,1.62-1.1,3.92.35,5.37Z"/>
      <path d="M62.66,178.42c9.86,9.86,17.57,21.4,22.91,34.28,5.34,12.89,8.04,26.49,8.04,40.44v18.72c11.64,4.01,23.97,6.53,36.77,7.33v-75.58c0-13.52-5.37-26.48-14.93-36.04L17.7,69.82c-8.19,14.27-13.94,30.11-16.68,46.96l61.64,61.64Z"/>
      <path d="M1,161.97c7.07,43.69,34.35,80.61,71.94,100.85,2.31,1.24,5.11-.44,5.11-3.07v-5.16c0-24.82-9.86-48.63-27.42-66.19l-40.5-40.5c-3.9-3.9-10.53-.85-10.12,4.65.26,3.56.59,7.01.98,9.42Z"/>
    </g>
  </symbol>

  <!-- Imagotipo: solo las hojas/emblema (sin texto). Uso: favicon, avatar, badges, botones. -->
  <symbol id="roots-imagotipo" viewBox="0 0 665.21 667" fill="currentColor">
    <path d="M489.84,51.99l-119.52,119.52c-6.13,6.13-16.6,1.79-16.6-6.88V9.73c0-5.75,4.96-10.22,10.68-9.68,44.08,4.16,85.68,16.88,123.1,36.47,5.8,3.03,6.95,10.85,2.33,15.48Z"/>
    <path d="M596.21,140.99l-225.88,225.88c-6.13,6.13-16.6,1.79-16.6-6.88v-73.82c0-29.16,11.58-57.12,32.2-77.74l138.88-138.88c3.46-3.46,8.96-3.83,12.82-.83,22.21,17.25,42.18,37.22,59.41,59.43,3,3.86,2.63,9.36-.83,12.82Z"/>
    <path d="M515.52,426.26c-23.56,23.56-41.97,51.11-54.73,81.9-12.76,30.78-19.22,63.29-19.22,96.62v44.73c-27.81,9.58-57.28,15.59-87.85,17.5v-176.18c0-35.1,13.94-68.76,38.76-93.57l230.45-230.45c19.57,34.09,33.3,71.94,39.85,112.2l-147.26,147.26Z"/>
    <path d="M662.82,386.94c-16.89,104.38-82.07,192.58-171.87,240.92-5.52,2.97-12.22-1.06-12.22-7.33v-12.32c0-59.31,23.56-116.18,65.5-158.12l96.76-96.76c9.31-9.31,25.15-2.02,24.18,11.11-.63,8.51-1.41,16.74-2.35,22.5Z"/>
    <path d="M175.37,51.99l119.52,119.52c6.13,6.13,16.6,1.79,16.6-6.88V9.73c0-5.75-4.96-10.22-10.68-9.68-44.08,4.16-85.68,16.88-123.1,36.47-5.8,3.03-6.95,10.85-2.33,15.48Z"/>
    <path d="M69,140.99l225.88,225.88c6.13,6.13,16.6,1.79,16.6-6.88v-73.82c0-29.16-11.58-57.12-32.2-77.74L140.41,69.57c-3.46-3.46-8.96-3.83-12.82-.83-22.21,17.25-42.18,37.22-59.41,59.43-3,3.86-2.63,9.36.83,12.82Z"/>
    <path d="M149.69,426.26c23.56,23.56,41.97,51.11,54.73,81.9,12.76,30.78,19.22,63.29,19.22,96.62v44.73c27.81,9.58,57.28,15.59,87.85,17.5v-180.56c0-32.29-12.83-63.26-35.66-86.09L42.28,166.8C22.71,200.89,8.98,238.74,2.43,279l147.26,147.26Z"/>
    <path d="M2.39,386.94c16.89,104.38,82.07,192.58,171.87,240.92,5.52,2.97,12.22-1.06,12.22-7.33v-12.32c0-59.31-23.56-116.18-65.5-158.12l-96.76-96.76c-9.31-9.31-25.15-2.02-24.18,11.11.63,8.51,1.41,16.74,2.35,22.5Z"/>
  </symbol>

  <!-- Small applications (compacto stacked). Uso: footer, secundario. -->
  <symbol id="roots-small" viewBox="0 0 387.94 291.54" fill="currentColor">
    <g>
      <path d="M14.92,268.75v12.11c0,4.85-3.93,8.78-8.78,8.78H0v-88.17h28.48c6.78,0,12.14,2.01,16.07,6.04,3.93,4.02,5.9,9.02,5.9,14.99,0,5.34-2.17,10.22-6.51,14.65,6.51,1.45,11.75,5.07,15.73,10.85,3.98,5.79,5.97,12.66,5.97,20.62v10.4c0,5.87-4.76,10.63-10.63,10.63h-4.29v-19.67c0-6.51-1.65-11.62-4.95-15.33-3.3-3.71-7.66-5.56-13.09-5.56-5.06,0-9.29,1.76-12.68,5.29-3.39,3.53-5.09,8.32-5.09,14.38ZM25.91,215.99h-10.99v25.5c.63-.63,1.36-1.27,2.17-1.9.81-.63,1.7-1.22,2.64-1.76.95-.54,1.76-1.02,2.44-1.42.68-.41,1.61-.9,2.78-1.49,1.17-.59,2.03-1.02,2.58-1.29,5.43-2.89,8.14-6.15,8.14-9.77,0-2.44-.86-4.36-2.58-5.76-1.72-1.4-4.12-2.1-7.19-2.1Z"/>
      <path d="M120.59,291.54c-12.57,0-23.26-4.48-32.08-13.43-8.82-8.95-13.23-19.85-13.23-32.69s4.41-23.49,13.23-32.49c8.82-9,19.51-13.5,32.08-13.5s23.31,4.5,32.21,13.5c8.9,9,13.36,19.83,13.36,32.49s-4.43,23.74-13.29,32.69c-8.86,8.95-19.62,13.43-32.28,13.43ZM120.59,276.21c8.41,0,15.53-2.98,21.36-8.95,5.83-5.97,8.75-13.25,8.75-21.84s-2.92-15.71-8.75-21.63c-5.83-5.92-12.95-8.88-21.36-8.88s-15.37,2.96-21.16,8.88c-5.79,5.92-8.68,13.14-8.68,21.63s2.89,15.87,8.68,21.84c5.79,5.97,12.84,8.95,21.16,8.95Z"/>
      <path d="M223.4,291.54c-12.57,0-23.26-4.48-32.08-13.43-8.82-8.95-13.23-19.85-13.23-32.69s4.41-23.49,13.23-32.49c8.82-9,19.51-13.5,32.08-13.5s23.31,4.5,32.21,13.5c8.91,9,13.36,19.83,13.36,32.49s-4.43,23.74-13.29,32.69c-8.87,8.95-19.63,13.43-32.28,13.43ZM223.4,276.21c8.41,0,15.53-2.98,21.36-8.95,5.83-5.97,8.75-13.25,8.75-21.84s-2.91-15.71-8.75-21.63c-5.83-5.92-12.95-8.88-21.36-8.88s-15.38,2.96-21.16,8.88c-5.79,5.92-8.68,13.14-8.68,21.63s2.89,15.87,8.68,21.84c5.79,5.97,12.84,8.95,21.16,8.95Z"/>
      <path d="M305.6,216.4v73.25h-14.92v-73.25h-18.58v-14.92h52.22v14.92h-18.72Z"/>
      <path d="M332.86,264.96v-5.02h14.92v5.02c0,3.53,1.27,6.37,3.8,8.54,2.53,2.17,5.56,3.26,9.09,3.26,3.26,0,6.08-.97,8.48-2.92,2.4-1.94,3.6-4.36,3.6-7.26,0-2.26-.63-4.25-1.9-5.97-1.27-1.72-2.55-2.98-3.87-3.8-1.31-.81-3.82-2.17-7.53-4.07-.18-.09-.32-.16-.41-.2-.09-.04-.23-.11-.41-.2-.18-.09-.34-.18-.47-.27-.14-.09-.3-.18-.47-.27l-5.29-2.71c-13.11-6.6-19.67-15.14-19.67-25.64,0-7.05,2.58-12.82,7.73-17.3,5.15-4.48,11.44-6.71,18.85-6.71s14.08,2.44,19.19,7.32c5.11,4.88,7.66,11.26,7.66,19.13v5.43h-14.92v-5.15c0-3.62-1.18-6.51-3.53-8.68-2.35-2.17-5.29-3.26-8.82-3.26-3.17,0-5.81.95-7.94,2.85-2.12,1.9-3.19,4.25-3.19,7.05s1.04,4.95,3.12,6.71c2.08,1.76,5.29,3.64,9.63,5.63l5.97,2.98c6.78,3.17,12.05,7.15,15.8,11.94,3.75,4.79,5.63,10.04,5.63,15.73,0,7.32-2.69,13.23-8.07,17.7-5.38,4.48-11.78,6.71-19.19,6.71s-14.02-2.39-19.53-7.19c-5.52-4.79-8.27-11.26-8.27-19.4Z"/>
      <g>
        <path d="M225.15,12.91l-29.68,29.68c-1.52,1.52-4.12.44-4.12-1.71V2.42c0-1.43,1.23-2.54,2.65-2.4,10.95,1.03,21.28,4.19,30.57,9.06,1.44.75,1.73,2.69.58,3.84Z"/>
        <path d="M251.57,35.01l-56.1,56.1c-1.52,1.52-4.12.44-4.12-1.71v-18.33c0-7.24,2.88-14.18,8-19.3l34.49-34.49c.86-.86,2.23-.95,3.18-.21,5.51,4.28,10.47,9.24,14.75,14.76.74.96.65,2.33-.21,3.18Z"/>
        <path d="M231.53,105.86c-5.85,5.85-10.42,12.69-13.59,20.34-3.17,7.65-4.77,15.72-4.77,23.99v11.11c-6.91,2.38-14.22,3.87-21.82,4.35v-43.75c0-8.72,3.46-17.07,9.63-23.24l57.23-57.23c4.86,8.47,8.27,17.87,9.9,27.86l-36.57,36.57Z"/>
        <path d="M268.11,96.09c-4.19,25.92-20.38,47.82-42.68,59.83-1.37.74-3.03-.26-3.03-1.82v-3.06c0-14.73,5.85-28.85,16.27-39.27l24.03-24.03c2.31-2.31,6.25-.5,6,2.76-.16,2.11-.35,4.16-.58,5.59Z"/>
        <path d="M147.06,12.91l29.68,29.68c1.52,1.52,4.12.44,4.12-1.71V2.42c0-1.43-1.23-2.54-2.65-2.4-10.95,1.03-21.28,4.19-30.57,9.06-1.44.75-1.73,2.69-.58,3.84Z"/>
        <path d="M120.64,35.01l56.1,56.1c1.52,1.52,4.12.44,4.12-1.71v-18.33c0-7.24-2.88-14.18-8-19.3l-34.49-34.49c-.86-.86-2.23-.95-3.18-.21-5.51,4.28-10.47,9.24-14.75,14.76-.74.96-.65,2.33.21,3.18Z"/>
        <path d="M140.68,105.86c5.85,5.85,10.42,12.69,13.59,20.34,3.17,7.65,4.77,15.72,4.77,23.99v11.11c6.91,2.38,14.22,3.87,21.82,4.35v-44.84c0-8.02-3.19-15.71-8.86-21.38l-58-58c-4.86,8.47-8.27,17.87-9.9,27.86l36.57,36.57Z"/>
        <path d="M104.1,96.09c4.19,25.92,20.38,47.82,42.68,59.83,1.37.74,3.03-.26,3.03-1.82v-3.06c0-14.73-5.85-28.85-16.27-39.27l-24.03-24.03c-2.31-2.31-6.25-.5,6,2.76.16,2.11.35,4.16.58,5.59Z"/>
      </g>
    </g>
  </symbol>
</svg>
